<?xml version="1.0" standalone="no"?>
<!DOCTYPE svg PUBLIC "-//W3C//DTD SVG 20010904//EN"
 "http://www.w3.org/TR/2001/REC-SVG-20010904/DTD/svg10.dtd">
<svg version="1.0" xmlns="http://www.w3.org/2000/svg"
 width="492.000000pt" height="1023.000000pt" viewBox="0 0 492.000000 1023.000000"
 preserveAspectRatio="xMidYMid meet">

<g transform="translate(0.000000,1023.000000) scale(0.100000,-0.100000)"
fill="#000000" stroke="none">
<path d="M0 5115 l0 -5115 2460 0 2460 0 0 5115 0 5115 -2460 0 -2460 0 0
-5115z m3140 4315 c336 -41 583 -251 665 -565 22 -86 22 -1304 0 -1410 -41
-191 -172 -371 -346 -476 -131 -79 -234 -108 -419 -118 l-115 -6 0 -50 0 -50
130 -6 c107 -6 147 -12 225 -38 115 -38 213 -91 303 -166 60 -50 136 -137 137
-158 1 -29 -37 -6 -111 65 -97 94 -162 136 -287 186 -126 50 -208 65 -332 60
-98 -4 -150 -17 -150 -37 0 -5 71 -11 158 -14 177 -5 234 -19 382 -90 69 -33
101 -57 170 -127 124 -125 192 -252 227 -428 30 -149 22 -441 -23 -881 -8 -80
-15 -172 -15 -205 1 -77 -14 -296 -33 -491 -9 -82 -18 -184 -21 -225 -4 -41
-15 -151 -25 -245 -10 -93 -21 -201 -25 -240 -3 -38 -12 -128 -20 -200 -8 -71
-22 -204 -30 -294 -9 -90 -18 -178 -20 -195 -2 -17 -9 -92 -15 -166 -6 -74
-15 -173 -21 -218 -10 -87 -25 -228 -59 -558 -23 -226 -26 -241 -52 -250 -28
-9 -30 -2 -19 62 6 33 20 156 31 274 11 118 29 303 40 410 39 376 91 907 110
1130 11 124 22 243 25 265 8 58 43 470 65 765 11 140 29 361 40 490 27 306 38
571 28 662 -32 305 -206 562 -437 648 -143 54 -119 53 -826 55 -369 2 -689 -1
-725 -6 -162 -23 -291 -89 -407 -207 -60 -61 -83 -93 -124 -178 -76 -157 -93
-247 -85 -459 7 -197 106 -1489 136 -1765 5 -52 14 -160 20 -240 5 -80 19
-230 30 -335 11 -104 30 -273 41 -375 28 -269 47 -457 69 -695 18 -204 44
-421 56 -478 5 -20 3 -27 -9 -27 -16 0 -47 26 -47 38 0 4 -9 84 -20 177 -10
94 -24 217 -29 275 -6 58 -26 245 -46 415 -19 171 -44 414 -55 540 -23 263
-34 377 -60 630 -11 99 -26 261 -35 360 -8 99 -20 225 -25 280 -5 55 -14 172
-20 260 -6 88 -17 255 -25 370 -40 567 -43 689 -20 830 40 248 208 469 438
575 111 52 205 70 361 70 l141 1 -28 24 c-26 23 -36 25 -126 25 -113 0 -187
-11 -291 -46 -147 -48 -282 -135 -365 -235 -22 -27 -45 -49 -52 -49 -67 -1 84
176 216 253 140 82 258 116 436 126 l120 6 0 50 0 50 -115 6 c-139 8 -210 22
-302 59 -107 44 -175 88 -257 170 -113 112 -180 238 -207 389 -16 94 -20 1298
-4 1371 34 151 154 341 268 425 68 50 190 112 258 131 39 11 120 19 239 24
298 11 1223 11 1315 0z m-2140 -1276 l0 -445 -22 3 c-15 2 -24 11 -26 26 -2
14 -20 33 -45 49 -23 14 -59 41 -79 61 l-38 36 0 279 c0 177 4 286 11 298 13
25 165 139 185 139 12 0 14 -68 14 -446z m2969 397 c32 -22 70 -54 85 -71 l26
-32 0 -274 c0 -316 1 -311 -84 -368 -30 -20 -64 -50 -76 -66 -12 -17 -28 -30
-36 -30 -12 0 -14 45 -14 288 0 401 9 604 27 598 7 -3 40 -23 72 -45z m-790
-2031 c123 -30 192 -70 291 -170 93 -93 124 -143 166 -265 26 -77 28 -90 32
-320 3 -163 -1 -314 -12 -470 -31 -427 -76 -999 -96 -1210 -21 -215 -42 -462
-60 -685 -6 -69 -15 -156 -20 -195 -6 -38 -17 -142 -25 -230 -15 -170 -78
-803 -96 -970 -14 -134 -56 -201 -139 -225 -22 -6 -309 -10 -788 -10 -824 0
-787 -3 -850 60 -53 53 -67 130 -113 630 -10 118 -23 251 -29 295 -9 75 -27
262 -50 505 -6 58 -21 222 -35 365 -26 278 -60 676 -70 815 -3 47 -10 135 -16
195 -5 61 -18 247 -29 415 -11 168 -25 368 -31 445 -15 187 -7 479 16 565 50
185 173 333 353 424 107 54 113 54 842 55 643 1 679 0 759 -19z m-1760 -4714
c-18 -38 -4 -71 38 -92 36 -18 80 -19 978 -19 929 0 940 0 975 20 31 19 36 27
40 70 l5 50 26 -25 c14 -14 47 -31 75 -38 180 -47 368 -199 452 -367 47 -93
63 -160 69 -282 l6 -113 -1647 0 -1646 0 0 88 c0 150 42 271 137 399 108 145
253 245 387 268 25 4 47 16 63 36 31 37 58 40 42 5z m1061 -901 c558 0 1232 4
1498 9 318 5 482 5 482 -2 0 -16 -744 -27 -1910 -27 -1233 0 -2070 12 -2070
28 0 7 154 7 493 1 270 -5 949 -9 1507 -9z"/>
<path d="M1666 9364 c-223 -41 -416 -197 -517 -419 -48 -107 -50 -141 -47
-820 l3 -630 24 -70 c46 -138 105 -231 210 -327 135 -125 275 -177 506 -187
l150 -6 3 -77 3 -78 52 -52 52 -53 332 2 333 2 50 49 50 49 0 77 c0 42 3 76 8
76 103 3 302 23 347 35 33 9 103 36 155 62 79 38 108 59 181 132 70 70 94 103
127 171 80 167 77 134 77 865 l0 650 -26 77 c-81 237 -251 399 -489 466 -81
23 -1465 28 -1584 6z m1584 -82 c229 -80 390 -263 420 -477 8 -54 10 -276 8
-695 -4 -612 -4 -615 -27 -680 -12 -36 -38 -92 -56 -125 -79 -141 -270 -277
-442 -316 -67 -15 -1229 -24 -1348 -11 -117 14 -203 41 -290 93 -182 108 -293
280 -316 489 -6 59 -9 314 -6 675 4 633 2 616 65 748 66 140 223 262 395 307
68 18 113 19 802 17 729 -3 730 -3 795 -25z m-1106 -2429 c24 -27 70 -61 103
-78 55 -28 64 -30 178 -30 109 0 125 2 178 27 31 15 84 47 116 72 33 26 64 46
70 46 49 0 -68 -111 -165 -157 -125 -59 -284 -58 -410 4 -62 30 -144 112 -144
143 0 33 26 23 74 -27z"/>
<path d="M1765 9260 c-194 -15 -360 -118 -454 -283 -63 -111 -62 -103 -64
-815 -2 -719 -4 -693 66 -827 46 -86 155 -193 245 -237 144 -73 147 -73 887
-73 647 1 662 1 738 22 216 61 394 242 437 443 8 39 10 239 8 700 -3 599 -4
649 -22 695 -43 117 -143 239 -244 298 -26 15 -83 39 -127 54 l-80 27 -645 2
c-355 1 -690 -2 -745 -6z m1411 -134 c122 -32 227 -118 285 -233 l34 -67 0
-645 0 -646 -32 -68 c-44 -93 -119 -169 -212 -215 l-75 -37 -745 0 -746 0 -68
33 c-141 69 -222 187 -238 346 -11 122 -11 1082 1 1173 21 164 151 315 308
358 71 20 1415 21 1488 1z m-148 -2048 c3 -17 -31 -18 -597 -18 -519 0 -601 2
-601 15 0 19 30 20 660 20 501 0 535 -1 538 -17z"/>
<path d="M1729 9090 c-130 -22 -263 -143 -300 -273 -4 -16 -11 -270 -14 -565
-8 -600 -2 -701 40 -789 34 -69 112 -145 184 -180 l56 -28 735 0 735 0 67 32
c85 40 151 106 191 191 l32 67 5 410 c3 226 3 511 0 635 -6 223 -6 226 -34
279 -42 81 -125 163 -199 197 l-62 29 -695 1 c-382 1 -716 -2 -741 -6z m16
-80 c4 -6 -19 -22 -52 -37 -32 -14 -68 -35 -81 -46 -17 -16 -25 -18 -34 -9
-16 16 13 47 72 78 48 25 85 30 95 14z m308 -569 c39 -15 97 -71 112 -109 32
-74 13 -172 -42 -224 -127 -122 -333 -35 -333 141 0 80 37 149 98 181 40 21
124 26 165 11z m910 -6 c37 -15 77 -58 103 -108 25 -48 15 -137 -22 -190 -34
-49 -102 -87 -156 -87 -73 0 -151 48 -185 115 -23 43 -20 132 5 182 20 38 78
86 118 96 40 10 103 7 137 -8z m-368 -620 c0 -19 -8 -20 -158 -23 -138 -2
-158 0 -164 14 -11 29 19 34 172 31 143 -2 150 -3 150 -22z"/>
<path d="M1910 8388 c-48 -33 -72 -70 -77 -120 -11 -95 57 -172 152 -172 81
-1 141 52 152 132 17 128 -126 229 -227 160z"/>
<path d="M2830 8399 c-90 -37 -129 -153 -77 -229 37 -56 72 -75 132 -74 42 0
60 6 90 28 40 31 65 78 65 124 0 38 -39 111 -71 135 -31 23 -104 31 -139 16z"/>
<path d="M887 8467 c-26 -22 -37 -40 -36 -57 0 -14 0 -115 0 -225 -3 -327 -8
-289 43 -325 25 -16 47 -26 50 -21 4 5 4 130 0 278 -3 147 -5 294 -4 326 1 31
-3 57 -7 57 -4 0 -25 -15 -46 -33z m26 -74 c-7 -2 -21 -2 -30 0 -10 3 -4 5 12
5 17 0 24 -2 18 -5z"/>
<path d="M3930 8409 c-1 -57 -2 -209 -4 -337 -2 -128 0 -235 4 -237 4 -2 26 9
49 26 l41 31 0 273 -1 272 -27 25 c-65 59 -62 61 -62 -53z"/>
<path d="M1735 6480 c-162 -22 -339 -149 -413 -296 -60 -118 -72 -189 -71
-405 0 -107 4 -246 9 -309 14 -182 29 -406 35 -520 3 -58 8 -118 10 -135 5
-34 10 -105 25 -315 20 -302 31 -445 35 -460 2 -8 9 -64 15 -125 6 -60 12
-130 15 -155 10 -95 35 -381 45 -510 6 -74 15 -173 21 -220 12 -106 27 -253
39 -390 10 -107 23 -243 40 -405 6 -49 13 -123 16 -163 4 -40 11 -75 16 -78
14 -9 1732 -4 1740 4 4 4 14 86 23 182 8 96 20 229 25 295 6 66 15 158 20 205
5 47 14 141 20 210 6 69 15 150 20 180 5 30 12 98 15 150 6 90 22 273 31 350
2 19 11 112 19 205 8 94 20 217 25 275 6 58 17 204 25 325 9 121 20 263 25
315 5 52 14 165 20 250 6 85 13 178 15 205 3 28 10 102 16 165 6 63 12 237 13
385 1 257 0 274 -22 345 -57 184 -171 326 -317 394 -110 51 -94 50 -815 52
-371 1 -702 -2 -735 -6z m1289 -290 c129 -21 233 -100 289 -218 l32 -67 -2
-630 c-2 -685 -8 -1082 -23 -1470 -13 -343 -30 -701 -35 -755 -2 -25 -9 -137
-15 -250 -14 -266 -33 -353 -96 -434 -50 -63 -111 -110 -182 -141 -45 -19 -72
-20 -525 -23 -504 -3 -539 -1 -634 44 -53 26 -132 102 -157 153 -48 94 -56
145 -66 396 -5 132 -12 281 -15 330 -7 117 -23 477 -30 680 -3 88 -7 221 -10
295 -10 274 -17 799 -19 1295 l-1 510 38 77 c21 43 54 93 74 113 43 42 129 84
192 95 68 11 1115 12 1185 0z"/>
<path d="M1798 6140 c-79 -24 -171 -116 -203 -201 -19 -52 -20 -77 -19 -784 1
-684 10 -1122 34 -1620 23 -472 50 -953 56 -995 13 -101 88 -210 177 -259 81
-45 123 -48 617 -44 429 4 470 5 525 23 82 27 155 92 195 173 34 69 37 93 60
507 44 787 78 2155 68 2730 -4 199 -6 219 -28 275 -29 72 -96 142 -166 176
l-49 24 -620 2 c-341 1 -632 -2 -647 -7z m1137 -1655 c0 -6 -173 -11 -492 -13
-271 -1 -493 2 -493 6 0 5 3 12 7 15 11 12 978 3 978 -8z m-17 -107 c-4 -10
-108 -14 -469 -16 -255 -1 -470 0 -477 3 -7 3 -10 9 -7 15 10 16 958 14 953
-2z m-28 -163 c0 -13 -57 -15 -450 -15 -393 0 -450 2 -450 15 0 13 57 15 450
15 393 0 450 -2 450 -15z m-22 -162 c3 -10 -87 -13 -427 -13 -237 0 -431 4
-431 8 0 5 3 12 7 15 3 4 196 6 426 5 326 -2 421 -6 425 -15z m-25 -158 c-3
-11 -776 -20 -803 -10 -13 5 -13 7 0 15 21 14 806 8 803 -5z m-18 -215 c4 -7
-127 -10 -385 -10 -258 0 -389 3 -385 10 4 6 143 10 385 10 242 0 381 -4 385
-10z m-31 -139 c11 -18 -45 -21 -371 -21 -301 0 -356 4 -336 24 10 10 701 7
707 -3z m-36 -283 c-3 -9 -76 -13 -289 -15 -286 -2 -359 1 -359 18 0 5 136 9
326 9 251 0 325 -3 322 -12z m12 -308 c0 -6 -94 -11 -257 -12 -142 -1 -287 -2
-323 -4 -68 -2 -84 1 -75 17 9 13 655 12 655 -1z m-40 -155 c0 -16 -592 -13
-598 3 -3 10 58 12 297 10 192 -2 301 -7 301 -13z m-70 -155 c0 -6 -80 -10
-220 -10 -140 0 -220 4 -220 10 0 6 80 10 220 10 140 0 220 -4 220 -10z m5
-160 c4 -7 -73 -10 -224 -10 -147 0 -231 4 -231 10 0 6 81 10 224 10 139 0
227 -4 231 -10z"/>
<path d="M2183 1952 c-578 -2 -613 -3 -613 -20 0 -24 55 -89 93 -110 30 -16
90 -17 784 -17 l751 0 39 31 c45 36 77 88 69 109 -5 13 -41 15 -258 13 -139
-2 -529 -4 -865 -6z"/>
<path d="M3490 1709 c-8 -11 -46 -31 -85 -44 l-70 -25 -881 0 c-501 0 -902 4
-930 9 -49 10 -124 40 -156 63 -22 16 -87 0 -178 -44 -49 -23 -89 -55 -160
-127 -141 -142 -196 -265 -188 -423 l3 -63 43 -1 c23 0 45 3 48 8 4 5 12 36
20 69 8 33 23 78 35 100 26 52 101 128 161 163 64 37 186 75 278 85 42 5 520
8 1061 7 l984 -2 88 -26 c106 -32 164 -65 238 -134 64 -62 99 -125 114 -209
l11 -60 53 -3 54 -3 -6 103 c-9 161 -57 265 -179 387 -79 80 -171 139 -262
171 -72 24 -77 24 -96 -1z"/>
<path d="M1440 1443 c-203 -24 -379 -135 -429 -269 -12 -32 -21 -71 -19 -88
l3 -31 1443 -3 1442 -2 0 22 c-1 115 -98 246 -232 314 -118 60 -80 58 -1173
60 -550 0 -1016 -1 -1035 -3z m1662 -150 c28 -25 24 -77 -8 -102 -15 -12 -32
-21 -39 -21 -25 0 -65 41 -65 68 0 57 71 92 112 55z m248 -3 c41 -41 10 -110
-49 -110 -45 0 -68 30 -61 80 6 48 74 66 110 30z m-1080 -19 c7 -15 6 -23 -6
-35 -8 -9 -19 -16 -23 -16 -17 0 -32 30 -26 50 8 25 41 26 55 1z m208 -2 c3
-17 -22 -49 -38 -49 -5 0 -16 7 -24 16 -12 12 -13 20 -5 35 13 25 62 23 67 -2z
m181 7 c15 -18 -2 -56 -23 -56 -21 0 -38 27 -31 50 7 23 37 27 54 6z m205 -1
c12 -31 -27 -67 -54 -50 -11 7 -14 48 -3 58 12 13 51 7 57 -8z"/>
<path d="M3030 1265 c-20 -25 -8 -50 25 -50 21 0 31 5 33 18 4 21 -14 47 -33
47 -7 0 -18 -7 -25 -15z"/>
<path d="M3274 1256 c-11 -28 4 -48 33 -44 22 2 28 8 28 28 0 20 -6 26 -28 28
-18 2 -29 -2 -33 -12z"/>
</g>
</svg>
